<svg width="24" height="25" viewBox="0 0 24 25" fill="none" xmlns="http://www.w3.org/2000/svg">
<path d="M13.9033 7.2997C12.2912 7.97024 9.06923 9.35808 4.23741 11.4632C3.45279 11.7752 3.04178 12.0805 3.00436 12.379C2.94113 12.8834 3.57279 13.082 4.43295 13.3525C4.54996 13.3893 4.67119 13.4274 4.79548 13.4678C5.64175 13.7429 6.78013 14.0647 7.37193 14.0775C7.90875 14.0891 8.5079 13.8678 9.16938 13.4135C13.6839 10.3661 16.0143 8.82578 16.1606 8.79257C16.2639 8.76915 16.4069 8.73969 16.5038 8.82583C16.6007 8.91197 16.5912 9.0751 16.5809 9.11887C16.5184 9.38563 14.0389 11.6908 12.7557 12.8837L12.7557 12.8838C12.3557 13.2556 12.0719 13.5194 12.0139 13.5797C11.884 13.7146 11.7516 13.8423 11.6243 13.9649L11.6243 13.965C10.8381 14.7229 10.2485 15.2913 11.6569 16.2194C12.3337 16.6654 12.8753 17.0342 13.4156 17.4022L13.4157 17.4022C14.0058 17.8041 14.5943 18.2049 15.3558 18.7041C15.5498 18.8312 15.7351 18.9633 15.9156 19.092C16.6023 19.5816 17.2193 20.0214 17.9815 19.9512C18.4244 19.9105 18.8818 19.494 19.1142 18.252C19.6633 15.3166 20.7426 8.95651 20.992 6.33567C21.0139 6.10605 20.9864 5.81218 20.9643 5.68318C20.9422 5.55418 20.8961 5.37038 20.7284 5.23432C20.5298 5.07319 20.2232 5.03921 20.0861 5.04162C19.4627 5.0526 18.5063 5.38518 13.9033 7.2997Z" fill="white"/>
<path d="M13.9033 7.2997C12.2912 7.97024 9.06923 9.35808 4.23741 11.4632C3.45279 11.7752 3.04178 12.0805 3.00436 12.379C2.94113 12.8834 3.57279 13.082 4.43295 13.3525C4.54996 13.3893 4.67119 13.4274 4.79548 13.4678C5.64175 13.7429 6.78013 14.0647 7.37193 14.0775C7.90875 14.0891 8.5079 13.8678 9.16938 13.4135C13.6839 10.3661 16.0143 8.82578 16.1606 8.79257C16.2639 8.76915 16.4069 8.73969 16.5038 8.82583C16.6007 8.91197 16.5912 9.0751 16.5809 9.11887C16.5184 9.38563 14.0389 11.6908 12.7557 12.8837L12.7557 12.8838C12.3557 13.2556 12.0719 13.5194 12.0139 13.5797C11.884 13.7146 11.7516 13.8423 11.6243 13.9649L11.6243 13.965C10.8381 14.7229 10.2485 15.2913 11.6569 16.2194C12.3337 16.6654 12.8753 17.0342 13.4156 17.4022L13.4157 17.4022C14.0058 17.8041 14.5943 18.2049 15.3558 18.7041C15.5498 18.8312 15.7351 18.9633 15.9156 19.092C16.6023 19.5816 17.2193 20.0214 17.9815 19.9512C18.4244 19.9105 18.8818 19.494 19.1142 18.252C19.6633 15.3166 20.7426 8.95651 20.992 6.33567C21.0139 6.10605 20.9864 5.81218 20.9643 5.68318C20.9422 5.55418 20.8961 5.37038 20.7284 5.23432C20.5298 5.07319 20.2232 5.03921 20.0861 5.04162C19.4627 5.0526 18.5063 5.38518 13.9033 7.2997Z" fill="white"/>
</svg>
