<svg width="18" height="19" viewBox="0 0 18 19" fill="none" xmlns="http://www.w3.org/2000/svg">
<path fill-rule="evenodd" clip-rule="evenodd" d="M9.00012 3.125C7.65393 3.125 6.56262 4.21631 6.56262 5.5625C6.56262 6.90869 7.65393 8 9.00012 8C10.3463 8 11.4376 6.90869 11.4376 5.5625C11.4376 4.21631 10.3463 3.125 9.00012 3.125ZM5.43762 5.5625C5.43762 3.59499 7.03261 2 9.00012 2C10.9676 2 12.5626 3.59499 12.5626 5.5625C12.5626 7.53001 10.9676 9.125 9.00012 9.125C7.03261 9.125 5.43762 7.53001 5.43762 5.5625ZM5.56358 11.8865C4.69471 12.3752 4.31262 12.9624 4.31262 13.4844C4.31262 14.3487 4.34286 14.7954 4.76156 15.1364C4.99259 15.3245 5.38683 15.5145 6.07656 15.6541C6.7638 15.7932 7.70695 15.875 9.00012 15.875C10.2933 15.875 11.2364 15.7932 11.9237 15.6541C12.6134 15.5145 13.0077 15.3245 13.2387 15.1364C13.6574 14.7954 13.6876 14.3487 13.6876 13.4844C13.6876 12.9624 13.3055 12.3752 12.4367 11.8865C11.5854 11.4076 10.3716 11.0938 9.00012 11.0938C7.62868 11.0938 6.41483 11.4076 5.56358 11.8865ZM5.01204 10.9059C6.06092 10.3159 7.47207 9.96875 9.00012 9.96875C10.5282 9.96875 11.9393 10.3159 12.9882 10.9059C14.0195 11.486 14.8126 12.3754 14.8126 13.4844C14.8126 13.5084 14.8127 13.5327 14.8127 13.5573C14.8136 14.3153 14.8148 15.3037 13.9491 16.0087C13.5238 16.355 12.9337 16.5975 12.1469 16.7567C11.3576 16.9165 10.332 17 9.00012 17C7.66829 17 6.64269 16.9165 5.85337 16.7567C5.06654 16.5975 4.47641 16.355 4.05118 16.0087C3.18542 15.3037 3.18663 14.3153 3.18756 13.5573C3.18759 13.5327 3.18762 13.5084 3.18762 13.4844C3.18762 12.3754 3.98079 11.486 5.01204 10.9059Z" fill="white"/>
</svg>
